<?xml version="1.0" encoding="UTF-8" standalone="no"?>
<!-- Created with Inkscape (http://www.inkscape.org/) -->

<svg
        xmlns:dc="http://purl.org/dc/elements/1.1/"
        xmlns:cc="http://creativecommons.org/ns#"
        xmlns:rdf="http://www.w3.org/1999/02/22-rdf-syntax-ns#"
        xmlns="http://www.w3.org/2000/svg"
        xmlns:xlink="http://www.w3.org/1999/xlink"
        xmlns:sodipodi="http://sodipodi.sourceforge.net/DTD/sodipodi-0.dtd"
        xmlns:inkscape="http://www.inkscape.org/namespaces/inkscape"
        width="210mm"
        height="297mm"
        viewBox="0 0 744.09448819 1052.3622047"
        id="svg2"
        version="1.1"
        inkscape:version="0.91 r13725"
        sodipodi:docname="toolbar-logos.svg">
  <sodipodi:namedview
     id="base"
     pagecolor="#ffffff"
     bordercolor="#666666"
     borderopacity="1.0"
     inkscape:pageopacity="0.0"
     inkscape:pageshadow="2"
     inkscape:zoom="1.4142135"
     inkscape:cx="400.81018"
     inkscape:cy="782.80059"
     inkscape:document-units="px"
     inkscape:current-layer="layer1"
     showgrid="false"
     inkscape:window-width="1920"
     inkscape:window-height="1017"
     inkscape:window-x="1272"
     inkscape:window-y="-8"
     inkscape:window-maximized="1"
     showguides="true" />
  <defs
     id="defs4">
    <linearGradient
       inkscape:collect="always"
       id="linearGradient4213">
      <stop
         style="stop-color:#bd0000;stop-opacity:1"
         offset="0"
         id="stop4215" />
      <stop
         style="stop-color:#ff0000;stop-opacity:1"
         offset="1"
         id="stop4217" />
    </linearGradient>
    <linearGradient
       inkscape:collect="always"
       id="linearGradient4173">
      <stop
         style="stop-color:#009900;stop-opacity:1"
         offset="0"
         id="stop4175" />
      <stop
         style="stop-color:#00ff00;stop-opacity:1"
         offset="1"
         id="stop4177" />
    </linearGradient>
    <linearGradient
       inkscape:collect="always"
       xlink:href="#linearGradient4173"
       id="linearGradient4179"
       x1="76.622551"
       y1="78.300018"
       x2="76.622551"
       y2="28.551279"
       gradientUnits="userSpaceOnUse" />
    <linearGradient
       inkscape:collect="always"
       xlink:href="#linearGradient4173"
       id="linearGradient4195"
       x1="19.393862"
       y1="516.883"
       x2="82.469757"
       y2="302.31357"
       gradientUnits="userSpaceOnUse" />
    <linearGradient
       inkscape:collect="always"
       xlink:href="#linearGradient4173"
       id="linearGradient4211"
       x1="174.17981"
       y1="161.98169"
       x2="174.17981"
       y2="114.44312"
       gradientUnits="userSpaceOnUse" />
    <linearGradient
       inkscape:collect="always"
       xlink:href="#linearGradient4213"
       id="linearGradient4219"
       x1="168.4187"
       y1="58.64957"
       x2="168.4187"
       y2="48.513844"
       gradientUnits="userSpaceOnUse" />
    <linearGradient
       inkscape:collect="always"
       xlink:href="#linearGradient4213"
       id="linearGradient4263"
       x1="261.01941"
       y1="161.8438"
       x2="261.01941"
       y2="112.9688"
       gradientUnits="userSpaceOnUse" />
    <linearGradient
       inkscape:collect="always"
       xlink:href="#linearGradient4173"
       id="linearGradient4267"
       gradientUnits="userSpaceOnUse"
       x1="19.393862"
       y1="516.883"
       x2="82.469757"
       y2="302.31357" />
    <linearGradient
       inkscape:collect="always"
       xlink:href="#linearGradient4173"
       id="linearGradient4307"
       gradientUnits="userSpaceOnUse"
       x1="174.17981"
       y1="161.98169"
       x2="174.17981"
       y2="114.44312" />
    <linearGradient
       inkscape:collect="always"
       xlink:href="#linearGradient4213"
       id="linearGradient4315"
       gradientUnits="userSpaceOnUse"
       x1="261.01941"
       y1="161.8438"
       x2="261.01941"
       y2="112.9688"
       gradientTransform="translate(312.50001,2.1861739)" />
  </defs>
  <metadata
     id="metadata7">
    <rdf:RDF>
      <cc:Work
         rdf:about="">
        <dc:format>image/svg+xml</dc:format>
        <dc:type
           rdf:resource="http://purl.org/dc/dcmitype/StillImage" />
        <dc:title />
      </cc:Work>
    </rdf:RDF>
  </metadata>
  <g
     inkscape:label="Ebene 1"
     inkscape:groupmode="layer"
     id="layer1">
    <g
       id="g4374"
       transform="matrix(0.5,0,0,0.5,17.656837,110.4801)">
      <circle
         r="50"
         cy="258.96021"
         cx="129.31367"
         id="path4144"
         style="opacity:1;fill:#00ff00;fill-opacity:1;stroke:none;stroke-width:0.80000001;stroke-miterlimit:4;stroke-dasharray:none;stroke-opacity:1" />
      <path
         transform="matrix(0.25238727,0,0,0.27689211,117.4835,145.49735)"
         inkscape:transform-center-x="-8.0427979"
         d="M -34.463155,299.38272 156.73817,409.77286 -34.463156,520.163 Z"
         inkscape:randomized="0"
         inkscape:rounded="0"
         inkscape:flatsided="true"
         sodipodi:arg2="-1.0471976"
         sodipodi:arg1="-2.0943951"
         sodipodi:r2="63.73378"
         sodipodi:r1="127.46755"
         sodipodi:cy="409.77286"
         sodipodi:cx="29.27062"
         sodipodi:sides="3"
         id="path4142"
         style="opacity:1;fill:#ffffff;fill-opacity:1;stroke:none;stroke-width:0.80000001;stroke-miterlimit:4;stroke-dasharray:none;stroke-opacity:1"
         sodipodi:type="star" />
    </g>
    <path
       transform="matrix(0.20642705,0,0,0.22646951,80.071133,46.78925)"
       inkscape:transform-center-x="-6.5781878"
       d="M -34.463155,299.38272 156.73817,409.77286 -34.463156,520.163 Z"
       inkscape:randomized="0"
       inkscape:rounded="0"
       inkscape:flatsided="true"
       sodipodi:arg2="-1.0471976"
       sodipodi:arg1="-2.0943951"
       sodipodi:r2="63.73378"
       sodipodi:r1="127.46755"
       sodipodi:cy="409.77286"
       sodipodi:cx="29.27062"
       sodipodi:sides="3"
       id="path4356"
       style="opacity:1;fill:url(#linearGradient4195);fill-opacity:1;stroke:none;stroke-width:0.80000001;stroke-miterlimit:4;stroke-dasharray:none;stroke-opacity:1"
       sodipodi:type="star"
       inkscape:export-filename="C:\Users\se7kn8\Projects\ServerController\src\main\resources\png\toolbar\start.png"
       inkscape:export-xdpi="45"
       inkscape:export-ydpi="45" />
    <g
       transform="matrix(0.5,0,0,0.5,-33.6168,-90.179346)"
       id="g4184"
       inkscape:export-xdpi="33"
       inkscape:export-ydpi="33">
      <circle
         style="opacity:1;fill:#ff0000;fill-opacity:1;stroke:none;stroke-width:0.80000001;stroke-miterlimit:4;stroke-dasharray:none;stroke-opacity:1"
         id="path4180"
         cx="580.23352"
         cy="675.08307"
         r="50" />
      <rect
         style="opacity:1;fill:#ffffff;fill-opacity:1;stroke:none;stroke-width:0.80000001;stroke-miterlimit:4;stroke-dasharray:none;stroke-opacity:1"
         id="rect4182"
         width="83"
         height="17"
         x="538.73352"
         y="666.58307" />
    </g>
    <g
       id="g4389"
       transform="matrix(0.5,0,0,0.5,34.54153,115.46754)">
      <g
         transform="matrix(0.07615374,0.3254604,-0.3254604,0.07615374,413.47279,94.731497)"
         id="g4366"
         style="fill:#ffffff" />
      <g
         id="g4403">
        <g
           transform="translate(-289.19672,-285.38816)"
           id="g4167"
           style="fill:#ffffff">
          <circle
             style="opacity:1;fill:#00ff00;fill-opacity:1;stroke:none;stroke-width:0.80000001;stroke-miterlimit:4;stroke-dasharray:none;stroke-opacity:1"
             id="circle4169"
             cx="574.27979"
             cy="540.32324"
             r="50" />
        </g>
        <path
           inkscape:connector-curvature="0"
           id="path4152"
           d="m 344.49403,407.48845 a 90,90 0 0 1 124.7948,25.02515 90,90 0 0 1 -25.02515,124.79481 90,90 0 0 1 -124.7948,-25.02516 l 16.64667,-11.08552 a 70,70 0 0 0 97.06262,19.46401 70,70 0 0 0 19.464,-97.06262 70,70 0 0 0 -97.06262,-19.46401 l -11.08552,-16.64666 z"
           style="opacity:1;fill:#ffffff;fill-opacity:1;stroke:none;stroke-width:0.80000001;stroke-miterlimit:4;stroke-dasharray:none;stroke-opacity:1"
           transform="matrix(0.07615374,0.3254604,-0.3254604,0.07615374,413.47279,94.731497)" />
        <path
           inkscape:transform-center-x="-8.2561202"
           sodipodi:type="star"
           style="opacity:1;fill:#ffffff;fill-opacity:1;stroke:none;stroke-width:0.80000001;stroke-miterlimit:4;stroke-dasharray:none;stroke-opacity:1"
           id="path4161"
           sodipodi:sides="3"
           sodipodi:cx="452.5"
           sodipodi:cy="465.36221"
           sodipodi:r1="46.671726"
           sodipodi:r2="23.335863"
           sodipodi:arg1="-1.5707963"
           sodipodi:arg2="-0.52359878"
           inkscape:flatsided="true"
           inkscape:rounded="0"
           inkscape:randomized="0"
           d="m 452.5,418.69049 40.4189,70.00759 -80.8378,0 z"
           inkscape:transform-center-y="10.455486"
           transform="matrix(-0.2437801,-0.22868127,-0.22868127,0.2437801,489.47828,226.37686)" />
      </g>
    </g>
    <g
       id="g4385"
       transform="matrix(0.76876928,0,0,0.76876928,-40.896372,37.77215)"
       inkscape:export-filename="C:\Users\se7kn8\Projects\ServerController\src\main\resources\png\toolbar\restart.png"
       inkscape:export-xdpi="45"
       inkscape:export-ydpi="45">
      <g
         id="g4396"
         transform="matrix(0.25881905,-0.96592583,-0.96592583,-0.25881905,330.66636,435.55012)">
        <path
           style="opacity:1;fill:url(#linearGradient4211);fill-opacity:1;stroke:none;stroke-width:0.80000001;stroke-miterlimit:4;stroke-dasharray:none;stroke-opacity:1"
           d="M 166.0332 113.58008 L 148.38477 124.53516 L 154.8418 127.99219 A 23.126585 23.126585 0 0 0 164.33984 159.23633 A 23.126585 23.126585 0 0 0 195.64453 149.76562 A 23.126585 23.126585 0 0 0 186.17578 118.46094 L 183.75 122.99219 A 17.987344 17.987344 0 0 1 191.11523 147.33984 A 17.987344 17.987344 0 0 1 166.76758 154.70508 A 17.987344 17.987344 0 0 1 159.37109 130.41797 L 166.69727 134.3418 L 166.0332 113.58008 z "
           transform="matrix(0.33666674,-1.2564574,-1.2564574,-0.33666674,396.3539,393.45992)"
           id="path4358" />
      </g>
    </g>
    <g
       transform="matrix(0.08799669,-0.08799694,0.08799669,0.08799694,10.598462,358.49854)"
       id="g4199"
       inkscape:export-xdpi="33"
       inkscape:export-ydpi="33"
       inkscape:export-filename="C:\Users\se7kn8\Projects\ServerController\src\main\resources\png\toolbar\edit.png">
      <g
         id="g4201">
        <g
           transform="translate(61.51829,7.0710678)"
           id="g4203">
          <rect
             style="opacity:1;fill:#ffcc00;fill-opacity:1;stroke:none;stroke-width:0.80000001;stroke-miterlimit:4;stroke-dasharray:none;stroke-opacity:1"
             id="rect4205"
             width="80"
             height="400"
             x="208.57144"
             y="258.07648" />
          <path
             sodipodi:type="star"
             style="opacity:1;fill:#aa4400;fill-opacity:1;stroke:none;stroke-width:0.80000001;stroke-miterlimit:4;stroke-dasharray:none;stroke-opacity:1"
             id="path4207"
             sodipodi:sides="3"
             sodipodi:cx="244.02649"
             sodipodi:cy="700.14636"
             sodipodi:r1="54.585636"
             sodipodi:r2="27.292818"
             sodipodi:arg1="1.5707963"
             sodipodi:arg2="2.6179939"
             inkscape:flatsided="true"
             inkscape:rounded="0"
             inkscape:randomized="0"
             d="m 244.02649,754.732 -47.27255,-81.87845 94.5451,-1e-5 z"
             inkscape:transform-center-y="13.646409"
             transform="matrix(0.84615706,0,0,1,42.086706,-14.855794)" />
          <path
             style="opacity:1;fill:#4d4d4d;fill-opacity:1;stroke:none;stroke-width:0.80000001;stroke-miterlimit:4;stroke-dasharray:none;stroke-opacity:1"
             d="m 233.29883,708.64281 c 5.09121,10.41134 10.18182,20.82309 15.27344,31.23414 5.66891,-11.59147 11.33498,-23.18488 17.0039,-34.77634 -11.33659,0 -22.67318,0 -34.00976,0 0.57747,1.18073 1.15494,2.36147 1.73242,3.5422 z"
             id="path4209"
             inkscape:connector-curvature="0" />
        </g>
        <rect
           y="251.27255"
           x="270.08972"
           height="13.875"
           width="80"
           id="rect4211"
           style="opacity:1;fill:#4d4d4d;fill-opacity:1;stroke:none;stroke-width:0.80000001;stroke-miterlimit:4;stroke-dasharray:none;stroke-opacity:1" />
        <rect
           y="218.74564"
           x="270.08972"
           height="32.526913"
           width="80"
           id="rect4213"
           style="opacity:1;fill:#aa0000;fill-opacity:1;stroke:none;stroke-width:0.80000001;stroke-miterlimit:4;stroke-dasharray:none;stroke-opacity:1" />
      </g>
    </g>
    <rect
       style="opacity:1;fill:url(#linearGradient4219);fill-opacity:1;stroke:none;stroke-width:0.80000001;stroke-miterlimit:4;stroke-dasharray:none;stroke-opacity:1"
       id="rect4161"
       width="50"
       height="10"
       x="143.71069"
       y="48.463593"
       inkscape:export-filename="C:\Users\se7kn8\Projects\ServerController\src\main\resources\png\toolbar\remove.png"
       inkscape:export-xdpi="45"
       inkscape:export-ydpi="45" />
    <g
       id="g4168"
       transform="matrix(0.5,0,0,0.5,10.355347,-174.7682)"
       inkscape:export-filename="C:\Users\se7kn8\Projects\ServerController\src\main\resources\png\toolbar\add.png"
       inkscape:export-xdpi="45"
       inkscape:export-ydpi="45"
       style="fill-opacity:1;fill:#00ff00">
      <path
         style="opacity:1;fill:url(#linearGradient4179);fill-opacity:1;stroke:none;stroke-width:0.80000001;stroke-miterlimit:4;stroke-dasharray:none;stroke-opacity:1"
         d="M 71.710938 28.462891 L 71.710938 48.462891 L 51.710938 48.462891 L 51.710938 58.462891 L 71.710938 58.462891 L 71.710938 78.462891 L 81.710938 78.462891 L 81.710938 58.462891 L 101.71094 58.462891 L 101.71094 48.462891 L 81.710938 48.462891 L 81.710938 28.462891 L 71.710938 28.462891 z "
         id="rect4163"
         transform="matrix(2,0,0,2,-20.710694,349.5364)" />
    </g>
    <rect
       style="opacity:1;fill:url(#linearGradient4263);fill-opacity:1;stroke:none;stroke-width:0.80000001;stroke-miterlimit:4;stroke-dasharray:none;stroke-opacity:1"
       id="rect4172"
       width="50"
       height="50"
       x="236.89441"
       y="110.9688"
       inkscape:export-filename="C:\Users\se7kn8\Projects\ServerController\src\main\resources\png\toolbar\stop.png"
       inkscape:export-xdpi="45"
       inkscape:export-ydpi="45" />
    <g
       id="g4321"
       inkscape:export-filename="C:\Users\se7kn8\Projects\ServerController\src\main\resources\png\toolbar\start_all.png"
       inkscape:export-xdpi="45"
       inkscape:export-ydpi="45">
      <path
         transform="matrix(0.20642705,0,0,0.22646951,371.75269,31.409676)"
         inkscape:transform-center-x="-6.5781878"
         d="M -34.463155,299.38272 156.73817,409.77286 -34.463156,520.163 Z"
         inkscape:randomized="0"
         inkscape:rounded="0"
         inkscape:flatsided="true"
         sodipodi:arg2="-1.0471976"
         sodipodi:arg1="-2.0943951"
         sodipodi:r2="63.73378"
         sodipodi:r1="127.46755"
         sodipodi:cy="409.77286"
         sodipodi:cx="29.27062"
         sodipodi:sides="3"
         id="path4265"
         style="opacity:1;fill:url(#linearGradient4267);fill-opacity:1;stroke:none;stroke-width:0.80000001;stroke-miterlimit:4;stroke-dasharray:none;stroke-opacity:1"
         sodipodi:type="star"
         inkscape:export-filename="C:\Users\se7kn8\Projects\ServerController\src\main\resources\png\toolbar\start.png"
         inkscape:export-xdpi="45"
         inkscape:export-ydpi="45" />
      <g
         id="g4277"
         transform="matrix(0.1941763,0,0,0.1941763,389.9109,35.576597)"
         inkscape:export-filename="C:\Users\se7kn8\Projects\ServerController\src\main\resources\png\toolbar\add.png"
         inkscape:export-xdpi="45"
         inkscape:export-ydpi="45"
         style="fill:#ff6600;fill-opacity:1">
        <path
           inkscape:connector-curvature="0"
           style="opacity:1;fill:#ff6600;fill-opacity:1;stroke:none;stroke-width:0.80000001;stroke-miterlimit:4;stroke-dasharray:none;stroke-opacity:1"
           d="m 71.710938,28.462891 0,20 -20,0 0,10 20,0 0,20 10,0 0,-20 20.000002,0 0,-10 -20.000002,0 0,-20 -10,0 z"
           id="path4279"
           transform="matrix(2,0,0,2,-20.710694,349.5364)" />
      </g>
    </g>
    <g
       id="g4326"
       transform="translate(-1.2500001,7.5000003)"
       inkscape:export-filename="C:\Users\se7kn8\Projects\ServerController\src\main\resources\png\toolbar\restart_all.png"
       inkscape:export-xdpi="46.492329"
       inkscape:export-ydpi="46.492329">
      <g
         id="g4301"
         transform="matrix(0.76876928,0,0,0.76876928,256.30554,21.089276)"
         inkscape:export-filename="C:\Users\se7kn8\Projects\ServerController\src\main\resources\png\toolbar\restart.png"
         inkscape:export-xdpi="45"
         inkscape:export-ydpi="45">
        <g
           id="g4303"
           transform="matrix(0.25881905,-0.96592583,-0.96592583,-0.25881905,330.66636,435.55012)">
          <path
             inkscape:connector-curvature="0"
             style="opacity:1;fill:url(#linearGradient4307);fill-opacity:1;stroke:none;stroke-width:0.80000001;stroke-miterlimit:4;stroke-dasharray:none;stroke-opacity:1"
             d="m 166.0332,113.58008 -17.64843,10.95508 6.45703,3.45703 a 23.126585,23.126585 0 0 0 9.49804,31.24414 23.126585,23.126585 0 0 0 31.30469,-9.47071 23.126585,23.126585 0 0 0 -9.46875,-31.30468 l -2.42578,4.53125 a 17.987344,17.987344 0 0 1 7.36523,24.34765 17.987344,17.987344 0 0 1 -24.34765,7.36524 17.987344,17.987344 0 0 1 -7.39649,-24.28711 l 7.32618,3.92383 -0.66407,-20.76172 z"
             transform="matrix(0.33666674,-1.2564574,-1.2564574,-0.33666674,396.3539,393.45992)"
             id="path4305" />
        </g>
      </g>
      <g
         style="fill:#ff6600;fill-opacity:1"
         inkscape:export-ydpi="45"
         inkscape:export-xdpi="45"
         inkscape:export-filename="C:\Users\se7kn8\Projects\ServerController\src\main\resources\png\toolbar\add.png"
         transform="matrix(0.1941763,0,0,0.1941763,481.14313,31.960642)"
         id="g4309">
        <path
           id="path4311"
           d="m 134.29859,409.03716 0,40 -39.999998,0 0,20 39.999998,0 0,40 20,0 0,-40 40,0 0,-20 -40,0 0,-40 -20,0 z"
           style="opacity:1;fill:#ff6600;fill-opacity:1;stroke:none;stroke-width:0.80000001;stroke-miterlimit:4;stroke-dasharray:none;stroke-opacity:1"
           inkscape:connector-curvature="0" />
      </g>
    </g>
    <g
       id="g4333"
       inkscape:export-filename="C:\Users\se7kn8\Projects\ServerController\src\main\resources\png\toolbar\stop_all.png"
       inkscape:export-xdpi="45"
       inkscape:export-ydpi="45">
      <rect
         style="opacity:1;fill:url(#linearGradient4315);fill-opacity:1;stroke:none;stroke-width:0.80000001;stroke-miterlimit:4;stroke-dasharray:none;stroke-opacity:1"
         id="rect4313"
         width="50"
         height="50"
         x="549.39441"
         y="113.15498"
         inkscape:export-filename="C:\Users\se7kn8\Projects\ServerController\src\main\resources\png\toolbar\stop.png"
         inkscape:export-xdpi="45"
         inkscape:export-ydpi="45" />
      <g
         id="g4317"
         transform="matrix(0.1941763,0,0,0.1941763,584.98197,49.77084)"
         inkscape:export-filename="C:\Users\se7kn8\Projects\ServerController\src\main\resources\png\toolbar\add.png"
         inkscape:export-xdpi="45"
         inkscape:export-ydpi="45"
         style="fill:#ff6600;fill-opacity:1">
        <path
           inkscape:connector-curvature="0"
           style="opacity:1;fill:#ff6600;fill-opacity:1;stroke:none;stroke-width:0.80000001;stroke-miterlimit:4;stroke-dasharray:none;stroke-opacity:1"
           d="m 135.58608,405.17469 0,40 -40,0 0,20 40,0 0,40 20,0 0,-40 40,0 0,-20 -40,0 0,-40 -20,0 z"
           id="path4319" />
      </g>
    </g>
  </g>
  <g
     id="g5430"
     inkscape:export-filename="C:\Users\se7kn8\Projects\ServerController\src\main\resources\png\toolbar\edit.png"
     inkscape:export-xdpi="44.99995"
     inkscape:export-ydpi="44.99995">
    <path
       inkscape:export-ydpi="90"
       inkscape:export-xdpi="90"
       inkscape:export-filename="C:\Users\se7kn8\Documents\Clicker\android\assets\textures\gears\simple-basic-gear-rusty.png"
       sodipodi:nodetypes="cccccccccccccccccccccccccccccccccccccccccccccsssss"
       inkscape:connector-curvature="0"
       id="path4146"
       d="m 80.123098,285.56646 c -1.205118,0.008 -2.408083,0.10181 -3.599726,0.27946 l -0.934833,4.40072 c -1.518125,0.32959 -2.994707,0.82385 -4.402874,1.47379 l -3.401124,-2.94937 c -2.123368,1.17069 -4.064845,2.63742 -5.764584,4.35498 l 1.969223,4.01773 c -0.839708,0.99085 -1.584256,2.0567 -2.224025,3.18376 l -4.471107,-0.49463 c -1.055657,2.19083 -1.782759,4.52174 -2.158416,6.91943 l 3.978139,2.09521 c -0.05297,0.57155 -0.08201,1.14501 -0.08702,1.71892 0.0037,0.57452 0.03148,1.14863 0.08323,1.72087 l -3.986875,2.09978 c 0.378032,2.39604 1.107067,4.725 2.164182,6.91374 l 4.492043,-0.49691 c 0.639542,1.1202 1.382734,2.17951 2.220067,3.16439 l -1.989493,4.05924 c 1.69875,1.71447 3.638509,3.17859 5.759636,4.34733 l 3.417281,-2.96354 c 1.408125,0.6547 2.885294,1.1535 4.404528,1.4873 l 0.930865,4.38265 c 1.191884,0.17961 2.395242,0.27491 3.600883,0.28516 1.205118,-0.008 2.408093,-0.10181 3.599733,-0.27946 l 0.934666,-4.40055 c 1.518244,-0.32962 2.994942,-0.82394 4.403211,-1.47396 l 3.401124,2.94954 c 2.123326,-1.17075 4.064742,-2.63754 5.764416,-4.35514 l -1.969215,-4.01774 c 0.839707,-0.99085 1.584258,-2.0567 2.224017,-3.18376 l 4.47111,0.49463 c 1.05565,-2.19083 1.78276,-4.52174 2.15842,-6.91943 l -3.97831,-2.09521 c 0.053,-0.57154 0.0821,-1.14501 0.0872,-1.71893 -0.004,-0.57451 -0.0315,-1.14862 -0.0832,-1.72086 l 3.98689,-2.09978 c -0.37804,-2.39603 -1.10708,-4.725 -2.16419,-6.91373 l -4.492037,0.49691 c -0.639601,-1.12015 -1.382851,-2.17942 -2.220235,-3.16423 l 1.989657,-4.05941 c -1.698747,-1.71447 -3.638506,-3.17858 -5.759631,-4.34733 l -3.41745,2.96354 c -1.408026,-0.65461 -2.885076,-1.15336 -4.404191,-1.48714 l -0.931041,-4.38281 c -1.191895,-0.17961 -2.395253,-0.27491 -3.600894,-0.28516 z m 0,12.50001 c 6.990716,-10e-6 12.657817,5.59643 12.657817,12.49999 9e-6,6.90357 -5.667091,12.50001 -12.657817,12.50001 -6.990716,0 -12.657816,-5.59645 -12.65781,-12.50001 0,-6.90355 5.667094,-12.49999 12.65781,-12.49999 z"
       style="opacity:1;fill:#999999;fill-opacity:1;stroke:none;stroke-width:0.80000001;stroke-miterlimit:4;stroke-dasharray:none;stroke-opacity:1" />
    <path
       inkscape:connector-curvature="0"
       id="path4146-9"
       d="m 80.1509,287.2335 c -0.82901,0.0185 -1.660744,0.0765 -2.494609,0.13175 -0.302618,1.4105 -0.605176,2.82101 -0.907817,4.2315 -1.967393,0.44396 -3.891794,1.08075 -5.73911,1.90559 -1.091465,-0.94035 -2.183073,-1.88054 -3.274582,-2.82083 -1.394025,0.87789 -2.733708,1.84714 -3.956352,2.94986 0.62975,1.28635 1.260359,2.57223 1.891519,3.85789 -1.125442,1.38313 -2.179252,2.82909 -3.063576,4.37706 -1.438265,-0.15747 -2.876509,-0.3151 -4.314768,-0.47262 -0.62075,1.52052 -1.158157,3.08585 -1.48875,4.69353 1.28426,0.67435 2.568509,1.34873 3.852775,2.02307 -0.149183,1.63437 -0.151599,3.28924 -0.0052,4.92447 -1.290484,0.67552 -2.582406,1.34859 -3.860707,2.04666 0.402926,1.60042 0.750615,3.26627 1.665618,4.67683 1.413541,-0.17762 2.962624,-0.6077 4.32464,-0.0111 1.042109,1.24861 1.797118,2.70598 2.865024,3.93508 -0.626865,1.27664 -1.253906,2.55319 -1.880842,3.8298 1.227602,1.08106 2.534403,2.10319 3.93596,2.97057 1.104426,-0.94867 2.208792,-1.89741 3.313259,-2.84603 1.843365,0.82756 3.76714,1.48034 5.739274,1.93095 0.300952,1.40238 0.6015,2.80485 0.902311,4.20727 1.636983,0.14408 3.28714,0.17839 4.93178,0.0239 0.305468,-1.41646 0.610734,-2.83168 0.911545,-4.24915 1.969339,-0.44356 3.899816,-1.08211 5.746706,-1.90559 1.090192,0.9392 2.180483,1.8783 3.270711,2.81746 1.399166,-0.88093 2.737191,-1.82845 3.955691,-2.94955 -0.628542,-1.28537 -1.256667,-2.57087 -1.88941,-3.85419 1.128327,-1.38668 2.179967,-2.82829 3.064384,-4.37898 1.439943,0.15764 2.879856,0.31553 4.319786,0.47327 0.61982,-1.52212 1.14208,-3.09031 1.48615,-4.69112 -1.28478,-0.67594 -2.56963,-1.35173 -3.854387,-2.02774 0.147812,-1.63404 0.151508,-3.28787 0.0052,-4.92269 1.284467,-0.67212 2.568947,-1.34422 3.853417,-2.01633 -0.36188,-1.59361 -0.83328,-3.17604 -1.46302,-4.69177 -1.44774,0.15608 -2.89548,0.31231 -4.343241,0.46829 -0.925468,-1.52043 -1.920849,-2.99679 -3.082358,-4.34705 0.641775,-1.30196 1.287407,-2.60219 1.90366,-3.9163 -1.260878,-1.02813 -2.509118,-2.09968 -3.966368,-2.85422 -1.1009,0.93962 -2.145826,2.04925 -3.561659,2.51512 -1.83114,-0.54656 -3.571999,-1.39176 -5.460784,-1.72361 -0.293598,-1.39124 -0.525259,-2.80341 -0.9439,-4.15928 -0.794791,-0.0647 -1.589092,-0.15874 -2.387816,-0.15181 z m 0.08237,9.63068 c 6.940216,-0.0327 13.335926,5.84596 13.808416,12.71679 0.536702,6.87778 -4.941617,13.67754 -11.863509,14.55852 -6.141534,0.86853 -12.737509,-2.71896 -15.001684,-8.50584 -2.222089,-5.49844 -0.388501,-12.43181 4.530636,-15.89118 2.446583,-1.80432 5.462988,-2.89387 8.526141,-2.87829 z"
       style="opacity:1;fill:#b3b3b3;fill-opacity:1;stroke:none;stroke-width:0.80000001;stroke-miterlimit:4;stroke-dasharray:none;stroke-opacity:1" />
  </g>
</svg>
